{"asset":{"version":"2.0","generator":"babylon.js glTF exporter for 3dsmax 2018 v20200721.1"},"scene":0,"scenes":[{"nodes":[0,1,2,3,4,5]}],"nodes":[{"mesh":0,"name":"Sphere02"},{"skin":0,"mesh":1,"translation":[2.15155058E-08,0.508,-0.508],"rotation":[0.7071068,0.0,0.0,0.7071067],"name":"Cylinder01"},{"skin":1,"mesh":2,"translation":[4.43658443E-08,0.508,-1.0307548],"rotation":[0.7071068,0.0,0.0,0.7071067],"name":"Cylinder02"},{"skin":2,"mesh":3,"translation":[7.155927E-08,0.508,-1.65286791],"rotation":[0.7071068,0.0,0.0,0.7071067],"name":"Cylinder03"},{"name":"Default light"},{"children":[6],"translation":[-2.63573656E-06,0.508,-0.508],"rotation":[-0.45122385,0.451223969,0.54442364,0.544423461],"scale":[0.99999994,1.0,0.99999994],"name":"Fiu_Cola01"},{"children":[7],"translation":[0.524701953,-1.66359815E-08,9.689331E-08],"rotation":[-3.93744415E-07,-0.3189489,-1.17004186E-06,0.9477719],"scale":[1.00000012,1.0,1.00000012],"name":"Fiu_Cola02"},{"children":[8],"translation":[0.62027204,0.0,4.84466547E-08],"rotation":[-2.60059915E-06,0.172772542,-1.733689E-06,0.984961748],"name":"Fiu_Cola03"},{"translation":[0.5658788,-3.84137273E-08,4.84466547E-08],"rotation":[-4.373783E-06,0.4478977,2.87550665E-06,0.8940849],"scale":[0.99999994,1.0,0.99999994],"name":"Fiu_Cola04"}],"meshes":[{"primitives":[{"attributes":{"POSITION":1,"NORMAL":2,"TEXCOORD_0":3},"indices":0,"material":0}],"name":"Sphere02"},{"primitives":[{"attributes":{"POSITION":5,"NORMAL":6,"TEXCOORD_0":7,"JOINTS_0":8,"WEIGHTS_0":9},"indices":4,"material":1}],"name":"Cylinder01"},{"primitives":[{"attributes":{"POSITION":11,"NORMAL":12,"TEXCOORD_0":13,"JOINTS_0":14,"WEIGHTS_0":15},"indices":10,"material":0}],"name":"Cylinder02"},{"primitives":[{"attributes":{"POSITION":17,"NORMAL":18,"TEXCOORD_0":19,"JOINTS_0":20,"WEIGHTS_0":21},"indices":16,"material":1}],"name":"Cylinder03"}],"accessors":[{"bufferView":0,"componentType":5123,"count":18240,"type":"SCALAR","name":"accessorIndices"},{"bufferView":1,"componentType":5126,"count":18240,"max":[0.492579222,1.012814,0.492579222],"min":[-0.4925792,0.003185605,-0.492579341],"type":"VEC3","name":"accessorPositions"},{"bufferView":1,"byteOffset":218880,"componentType":5126,"count":18240,"type":"VEC3","name":"accessorNormals"},{"bufferView":2,"componentType":5126,"count":18240,"type":"VEC2","name":"accessorUVs"},{"bufferView":0,"byteOffset":36480,"componentType":5123,"count":6528,"type":"SCALAR","name":"accessorIndices"},{"bufferView":1,"byteOffset":437760,"componentType":5126,"count":6528,"max":[0.240643322,0.00182249735,0.145429268],"min":[-0.240643382,-0.5999241,-0.293303519],"type":"VEC3","name":"accessorPositions"},{"bufferView":1,"byteOffset":516096,"componentType":5126,"count":6528,"type":"VEC3","name":"accessorNormals"},{"bufferView":2,"byteOffset":145920,"componentType":5126,"count":6528,"type":"VEC2","name":"accessorUVs"},{"bufferView":3,"componentType":5123,"count":6528,"type":"VEC4","name":"accessorJoints"},{"bufferView":4,"componentType":5126,"count":6528,"type":"VEC4","name":"accessorWeights"},{"bufferView":0,"byteOffset":49536,"componentType":5123,"count":576,"type":"SCALAR","name":"accessorIndices"},{"bufferView":1,"byteOffset":594432,"componentType":5126,"count":576,"max":[0.120627135,-0.3452617,-0.475941837],"min":[-0.1206277,-0.4967358,-0.6591582],"type":"VEC3","name":"accessorPositions"},{"bufferView":1,"byteOffset":601344,"componentType":5126,"count":576,"type":"VEC3","name":"accessorNormals"},{"bufferView":2,"byteOffset":198144,"componentType":5126,"count":576,"type":"VEC2","name":"accessorUVs"},{"bufferView":3,"byteOffset":52224,"componentType":5123,"count":576,"type":"VEC4","name":"accessorJoints"},{"bufferView":4,"byteOffset":104448,"componentType":5126,"count":576,"type":"VEC4","name":"accessorWeights"},{"bufferView":0,"byteOffset":50688,"componentType":5123,"count":8064,"type":"SCALAR","name":"accessorIndices"},{"bufferView":1,"byteOffset":608256,"componentType":5126,"count":8064,"max":[0.323811859,0.3465389,-0.34969303],"min":[-0.323812336,-0.7784544,-1.02567518],"type":"VEC3","name":"accessorPositions"},{"bufferView":1,"byteOffset":705024,"componentType":5126,"count":8064,"type":"VEC3","name":"accessorNormals"},{"bufferView":2,"byteOffset":202752,"componentType":5126,"count":8064,"type":"VEC2","name":"accessorUVs"},{"bufferView":3,"byteOffset":56832,"componentType":5123,"count":8064,"type":"VEC4","name":"accessorJoints"},{"bufferView":4,"byteOffset":113664,"componentType":5126,"count":8064,"type":"VEC4","name":"accessorWeights"},{"bufferView":5,"componentType":5126,"count":2,"type":"MAT4","name":"accessorInverseBindMatrices"},{"bufferView":5,"byteOffset":128,"componentType":5126,"count":3,"type":"MAT4","name":"accessorInverseBindMatrices"},{"bufferView":5,"byteOffset":320,"componentType":5126,"count":4,"type":"MAT4","name":"accessorInverseBindMatrices"},{"bufferView":6,"componentType":5126,"count":61,"max":[2.0],"min":[0.0],"type":"SCALAR","name":"accessorAnimationInput"},{"bufferView":7,"componentType":5126,"count":61,"type":"VEC3","name":"accessorAnimationPositions"},{"bufferView":8,"componentType":5126,"count":61,"type":"VEC4","name":"accessorAnimationRotations"},{"bufferView":7,"byteOffset":732,"componentType":5126,"count":61,"type":"VEC3","name":"accessorAnimationScales"},{"bufferView":6,"byteOffset":244,"componentType":5126,"count":61,"max":[2.0],"min":[0.0],"type":"SCALAR","name":"accessorAnimationInput"},{"bufferView":7,"byteOffset":1464,"componentType":5126,"count":61,"type":"VEC3","name":"accessorAnimationPositions"},{"bufferView":8,"byteOffset":976,"componentType":5126,"count":61,"type":"VEC4","name":"accessorAnimationRotations"},{"bufferView":7,"byteOffset":2196,"componentType":5126,"count":61,"type":"VEC3","name":"accessorAnimationScales"},{"bufferView":6,"byteOffset":488,"componentType":5126,"count":61,"max":[2.0],"min":[0.0],"type":"SCALAR","name":"accessorAnimationInput"},{"bufferView":7,"byteOffset":2928,"componentType":5126,"count":61,"type":"VEC3","name":"accessorAnimationPositions"},{"bufferView":8,"byteOffset":1952,"componentType":5126,"count":61,"type":"VEC4","name":"accessorAnimationRotations"},{"bufferView":7,"byteOffset":3660,"componentType":5126,"count":61,"type":"VEC3","name":"accessorAnimationScales"},{"bufferView":6,"byteOffset":732,"componentType":5126,"count":60,"max":[2.0],"min":[0.0],"type":"SCALAR","name":"accessorAnimationInput"},{"bufferView":7,"byteOffset":4392,"componentType":5126,"count":60,"type":"VEC3","name":"accessorAnimationPositions"},{"bufferView":8,"byteOffset":2928,"componentType":5126,"count":60,"type":"VEC4","name":"accessorAnimationRotations"},{"bufferView":7,"byteOffset":5112,"componentType":5126,"count":60,"type":"VEC3","name":"accessorAnimationScales"}],"bufferViews":[{"buffer":0,"byteLength":66816,"name":"bufferViewScalar"},{"buffer":0,"byteOffset":66816,"byteLength":801792,"byteStride":12,"name":"bufferViewFloatVec3"},{"buffer":0,"byteOffset":868608,"byteLength":267264,"byteStride":8,"name":"bufferViewFloatVec2"},{"buffer":0,"byteOffset":1135872,"byteLength":121344,"byteStride":8,"name":"bufferViewUnsignedShortVec4"},{"buffer":0,"byteOffset":1257216,"byteLength":242688,"byteStride":16,"name":"bufferViewFloatVec4"},{"buffer":0,"byteOffset":1499904,"byteLength":576,"name":"bufferViewFloatMat4"},{"buffer":0,"byteOffset":1500480,"byteLength":972,"name":"bufferViewAnimationFloatScalar"},{"buffer":0,"byteOffset":1501452,"byteLength":5832,"name":"bufferViewAnimationFloatVec3"},{"buffer":0,"byteOffset":1507284,"byteLength":3888,"name":"bufferViewAnimationFloatVec4"}],"buffers":[{"uri":"tailor.bin","byteLength":1511172}],"materials":[{"pbrMetallicRoughness":{"baseColorFactor":[0.976470649,0.839215755,0.411764741,1.0],"metallicFactor":0.0,"roughnessFactor":0.450053632},"name":"02 - Default"},{"pbrMetallicRoughness":{"baseColorFactor":[0.913725555,0.913725555,0.913725555,1.0],"metallicFactor":0.0,"roughnessFactor":0.450053632},"name":"Material #3"}],"animations":[{"channels":[{"sampler":0,"target":{"node":5,"path":"translation"}},{"sampler":1,"target":{"node":5,"path":"rotation"}},{"sampler":2,"target":{"node":5,"path":"scale"}},{"sampler":3,"target":{"node":6,"path":"translation"}},{"sampler":4,"target":{"node":6,"path":"rotation"}},{"sampler":5,"target":{"node":6,"path":"scale"}},{"sampler":6,"target":{"node":7,"path":"translation"}},{"sampler":7,"target":{"node":7,"path":"rotation"}},{"sampler":8,"target":{"node":7,"path":"scale"}},{"sampler":9,"target":{"node":8,"path":"translation"}},{"sampler":10,"target":{"node":8,"path":"rotation"}},{"sampler":11,"target":{"node":8,"path":"scale"}}],"samplers":[{"input":25,"output":26},{"input":25,"output":27},{"input":25,"output":28},{"input":29,"output":30},{"input":29,"output":31},{"input":29,"output":32},{"input":33,"output":34},{"input":33,"output":35},{"input":33,"output":36},{"input":37,"output":38},{"input":37,"output":39},{"input":37,"output":40}],"name":"All Animations"}],"skins":[{"inverseBindMatrices":22,"skeleton":5,"joints":[5,6],"name":"skeleton #0"},{"inverseBindMatrices":23,"skeleton":5,"joints":[5,6,7],"name":"skeleton #1"},{"inverseBindMatrices":24,"skeleton":5,"joints":[5,6,7,8],"name":"skeleton #2"}]}